<?xml version="1.0" encoding="UTF-8"?> <svg xmlns="http://www.w3.org/2000/svg" xmlns:xlink="http://www.w3.org/1999/xlink" width="880px" height="538px" viewBox="0 0 880 538"><!-- Generator: Sketch 54.1 (76490) - https://sketchapp.com --><title>Group</title><desc>Created with Sketch.</desc><defs><linearGradient x1="4.58972779%" y1="73.0000534%" x2="112.202057%" y2="40.326076%" id="linearGradient-1"><stop stop-color="#EBE8F6" offset="0%"></stop><stop stop-color="#DDDDE7" offset="100%"></stop></linearGradient><path d="M0.625619835,422.157025 L0.625619835,17.677686 C0.625619835,7.91404959 8.53966942,0 18.3033058,0 L430.580165,0 C440.343802,0 448.257851,7.91404959 448.257851,17.677686 L448.257851,420.280094 L0.625619835,422.157025 Z" id="path-2"></path><filter x="-7.0%" y="-26.9%" width="114.0%" height="153.8%" id="filter-4"><feOffset dx="0" dy="1" in="SourceAlpha" result="shadowOffsetOuter1"></feOffset><feGaussianBlur stdDeviation="5" in="shadowOffsetOuter1" result="shadowBlurOuter1"></feGaussianBlur><feColorMatrix values="0 0 0 0 0.68627451 0 0 0 0 0.690196078 0 0 0 0 0.803921569 0 0 0 0.1 0" type="matrix" in="shadowBlurOuter1" result="shadowMatrixOuter1"></feColorMatrix><feMerge><feMergeNode in="shadowMatrixOuter1"></feMergeNode><feMergeNode in="SourceGraphic"></feMergeNode></feMerge></filter><filter x="-7.0%" y="-26.9%" width="114.0%" height="153.8%" id="filter-5"><feOffset dx="0" dy="1" in="SourceAlpha" result="shadowOffsetOuter1"></feOffset><feGaussianBlur stdDeviation="5" in="shadowOffsetOuter1" result="shadowBlurOuter1"></feGaussianBlur><feColorMatrix values="0 0 0 0 0.68627451 0 0 0 0 0.690196078 0 0 0 0 0.803921569 0 0 0 0.1 0" type="matrix" in="shadowBlurOuter1" result="shadowMatrixOuter1"></feColorMatrix><feMerge><feMergeNode in="shadowMatrixOuter1"></feMergeNode><feMergeNode in="SourceGraphic"></feMergeNode></feMerge></filter><filter x="-7.0%" y="-26.9%" width="114.0%" height="153.8%" id="filter-6"><feOffset dx="0" dy="1" in="SourceAlpha" result="shadowOffsetOuter1"></feOffset><feGaussianBlur stdDeviation="5" in="shadowOffsetOuter1" result="shadowBlurOuter1"></feGaussianBlur><feColorMatrix values="0 0 0 0 0.68627451 0 0 0 0 0.690196078 0 0 0 0 0.803921569 0 0 0 0.1 0" type="matrix" in="shadowBlurOuter1" result="shadowMatrixOuter1"></feColorMatrix><feMerge><feMergeNode in="shadowMatrixOuter1"></feMergeNode><feMergeNode in="SourceGraphic"></feMergeNode></feMerge></filter><rect id="path-7" x="213" y="121.194215" width="307" height="70" rx="2"></rect><filter x="-9.9%" y="-39.3%" width="121.2%" height="192.9%" id="filter-8"><feOffset dx="2" dy="5" in="SourceAlpha" result="shadowOffsetOuter1"></feOffset><feGaussianBlur stdDeviation="10" in="shadowOffsetOuter1" result="shadowBlurOuter1"></feGaussianBlur><feColorMatrix values="0 0 0 0 0.68627451 0 0 0 0 0.690196078 0 0 0 0 0.803921569 0 0 0 1 0" type="matrix" in="shadowBlurOuter1"></feColorMatrix></filter><rect id="path-9" x="-51" y="74.1942149" width="130" height="245" rx="2"></rect><filter x="-23.5%" y="-11.2%" width="150.0%" height="126.5%" id="filter-10"><feOffset dx="2" dy="5" in="SourceAlpha" result="shadowOffsetOuter1"></feOffset><feGaussianBlur stdDeviation="10" in="shadowOffsetOuter1" result="shadowBlurOuter1"></feGaussianBlur><feColorMatrix values="0 0 0 0 0.68627451 0 0 0 0 0.690196078 0 0 0 0 0.803921569 0 0 0 1 0" type="matrix" in="shadowBlurOuter1"></feColorMatrix></filter><linearGradient x1="4.58972779%" y1="51.0010774%" x2="112.202057%" y2="49.5789424%" id="linearGradient-11"><stop stop-color="#AFB0CD" offset="0%"></stop><stop stop-color="#C1C2D8" offset="100%"></stop></linearGradient><linearGradient x1="68.8396361%" y1="59.3951885%" x2="9.96413366%" y2="50%" id="linearGradient-12"><stop stop-color="#F66B1C" offset="0%"></stop><stop stop-color="#F80100" offset="100%"></stop></linearGradient><linearGradient x1="96.9540282%" y1="50%" x2="0%" y2="50%" id="linearGradient-13"><stop stop-color="#F66B1C" offset="0%"></stop><stop stop-color="#F80100" offset="100%"></stop></linearGradient><path d="M0.949586777,5.61322314 L1.33140496,1.08595041 L0.949586777,5.61322314 M62.9677686,2.02809917 L62.8438017,1.08595041 L62.9677686,2.02809917" id="path-14"></path><linearGradient x1="-322.715279%" y1="-528.860898%" x2="399.060526%" y2="-528.860898%" id="linearGradient-16"><stop stop-color="#CB4E35" offset="0%"></stop><stop stop-color="#904C8D" offset="100%"></stop></linearGradient><linearGradient x1="86.8875114%" y1="50%" x2="56.4588526%" y2="67.6896714%" id="linearGradient-17"><stop stop-color="#F66B1C" offset="0%"></stop><stop stop-color="#F80100" offset="100%"></stop></linearGradient><polyline id="path-18" points="2.9677686 2.62066116 1.95371901 0.609917355 2.9677686 2.62066116"></polyline><linearGradient x1="-1084.25%" y1="8439.65%" x2="31582.05%" y2="-12720.75%" id="linearGradient-20"><stop stop-color="#B2B3BC" offset="0%"></stop><stop stop-color="#A4A5BA" offset="100%"></stop></linearGradient><path d="M3.08677686,2.15454545 L3.08677686,2.15454545 C3.11404959,2.02809917 3.14876033,1.90165289 3.18347107,1.77520661 L3.20578512,1.81487603 L3.08677686,2.15454545" id="path-21"></path><linearGradient x1="-1311.9%" y1="9325.55%" x2="31354.4%" y2="-11834.85%" id="linearGradient-23"><stop stop-color="#EDEEF2" offset="0%"></stop><stop stop-color="#D6D7E3" offset="100%"></stop></linearGradient><path d="M3.27768595,4.09586777 L3.23553719,4.0785124 C3.41157025,3.52809917 3.65454545,3.00247934 3.96198347,2.51652893 C3.96942149,2.51157025 3.97438017,2.50909091 3.98181818,2.50661157 C3.68181818,3.00247934 3.45371901,3.54049587 3.27768595,4.09586777" id="path-24"></path><linearGradient x1="-1330.55%" y1="9371.65%" x2="31335.75%" y2="-11788.75%" id="linearGradient-26"><stop stop-color="#EDEEF2" offset="0%"></stop><stop stop-color="#D6D7E3" offset="100%"></stop></linearGradient><linearGradient x1="71.1521517%" y1="73.3791088%" x2="38.2595713%" y2="67.187213%" id="linearGradient-27"><stop stop-color="#F80100" offset="0%"></stop><stop stop-color="#F66B1C" offset="100%"></stop></linearGradient><linearGradient x1="65.3335263%" y1="27.2259808%" x2="117.243327%" y2="50%" id="linearGradient-28"><stop stop-color="#F66B1C" offset="0%"></stop><stop stop-color="#F80100" offset="100%"></stop></linearGradient></defs><g id="New" stroke="none" stroke-width="1" fill="none" fill-rule="evenodd"><g id="Home" transform="translate(-375.000000, -84.000000)"><g id="Group" transform="translate(375.000000, -29.000000)"><path d="M720.544167,646.96281 C821.214844,646.96281 877.767457,585.156393 879,489.605764 C880,412.082575 867.784084,337.007998 792.953992,281.813223 C719.544547,227.66632 751.017769,167.809932 649.928099,127.410156 C580.550442,99.6838635 514.15281,115.128616 461.213223,147.535156 C408.273637,179.941697 422.471485,233.824648 388.927329,250.283471 C342.728692,272.951359 289.08595,219.086777 237.5,273.140496 C185.91405,327.194215 308.824589,466.611497 212,430.334957 C177.610305,417.450429 86.6942696,486.511745 140.332231,566.224786 C181.605785,627.562697 122.55042,649 11,649 C-100.55042,649 691.142622,646.96281 720.544167,646.96281 Z" id="Oval" fill="url(#linearGradient-1)"></path><g id="Group-10" transform="translate(147.143919, 332.206296)"><path d="M83.2544278,44.7259353 C47.65856,66.7672576 58.7337667,118.307754 59.212279,153.930894 C59.7428576,193.206101 60.2709567,232.481307 60.8015352,271.756514 C60.8337667,274.124282 57.1569071,274.124282 57.1246757,271.756514 C56.4924443,224.817671 55.8602129,177.878828 55.2279815,130.939985 C54.7817005,97.7961833 49.1114526,61.5432907 81.3998824,41.5523816 C83.4155848,40.3027948 85.2651716,43.4813072 83.2544278,44.7259353" id="Fill-29" fill="#CECFDE"></path><path d="M63.4866592,62.6540345 C65.1081468,59.2350262 66.8040146,55.8036213 69.228808,52.9003155 C72.9329402,48.4672576 78.0924443,45.5490758 83.1304609,42.7275882 L83.8717832,43.1218031 C86.782527,50.6937039 88.2949237,58.9970097 86.7800476,66.9656048 C85.2626923,74.9341998 80.4007088,82.4961833 73.0891386,86.0118857 C67.728808,88.5928775 61.3916179,88.9275882 56.3883121,92.1482494 C54.9726096,81.9829601 59.0907914,71.9267618 63.4866592,62.6540345" id="Fill-30" fill="#CECFDE"></path><path d="M26.2023617,0.137505583 C61.5552543,14.1606461 53.9461633,67.7862659 55.3717832,98.0094064 C57.7866592,149.25982 59.0932708,200.507754 58.75856,251.82015 C58.743684,254.185439 55.0668245,254.190398 55.0817005,251.82015 C55.3618658,209.155687 54.6651716,166.496183 52.875089,123.868911 C52.0668245,104.606927 51.097403,85.3499023 50.1874857,66.0928775 C49.1312873,43.7341998 50.1602129,13.5705634 25.2255022,3.68048079 C23.051122,2.81767087 23.9982295,-0.737701028 26.2023617,0.137505583" id="Fill-31" fill="#CECFDE"></path><path d="M50.4031881,61.8184973 L50.5742625,61.2804808 C51.1147584,62.1333734 51.6155848,63.0135386 52.004841,63.9829601 L50.4031881,61.8184973" id="Fill-32" fill="#CECFDE"></path><path d="M24.1891386,3.25899319 C24.3998824,2.7680841 24.6502956,2.24742294 25.1238493,1.99700972 C25.6569071,1.71684443 26.3089733,1.86560476 26.8866592,2.03915848 C38.3883121,5.45072872 47.4626923,15.2019684 51.3998824,26.5350262 C55.2775683,37.6895717 54.4817005,50.130894 50.5742625,61.2804808 C46.1808741,54.3408114 37.2552543,50.8722163 31.004841,45.1176709 C19.9097997,34.9052742 18.2064939,17.1011419 24.1891386,3.25899319" id="Fill-33" fill="#CECFDE"></path><path d="M72.2982295,313.327588 C80.2693038,313.327588 86.7329402,306.863952 86.7329402,298.892877 L86.7329402,251.864778 L25.8056675,251.864778 L25.8056675,298.892877 C25.8056675,306.863952 32.2668245,313.327588 40.2403782,313.327588 L72.2982295,313.327588 Z" id="Fill-34" fill="#AFB0CD"></path><path d="M54.6676509,178.892877 C55.2205435,164.691225 55.8676509,147.87139 45.3180642,136.739158 C37.0841799,128.049076 15.9676509,122.061473 4.13128731,121.756514 C1.77095673,121.69453 1.76103938,118.017671 4.13128731,118.079654 C13.1560807,118.312712 22.575089,121.892877 31.0767419,124.778828 C37.3321138,126.903621 43.2502956,129.251555 47.9164113,134.140811 C59.2469898,146.011886 58.9370724,163.647423 58.3445105,178.892877 C58.2527749,181.248249 54.5759154,181.260646 54.6676509,178.892877" id="Fill-35" fill="#CECFDE"></path><path d="M0.166824503,116.601968 C0.380047643,116.358993 0.744510453,116.344117 1.0668245,116.346596 C5.51227905,116.383787 9.95525425,116.423456 14.3982295,116.460646 C18.243684,116.492877 22.1387253,116.532547 25.8602129,117.499489 C33.375089,119.453208 39.4569071,125.004448 44.212279,131.143291 L45.5957501,131.354035 C38.6635187,133.568084 31.8552543,136.468911 24.6155848,137.22263 C17.3759154,137.973869 9.35525425,136.139158 4.81806417,130.449076 C1.92963442,126.821803 0.806493924,122.125935 0.0428575605,117.554035 C-0.0116878941,117.226762 -0.0513573156,116.849902 0.166824503,116.601968" id="Fill-36" fill="#CECFDE"></path></g><g id="Group-7" transform="translate(756.645352, 572.962810) scale(-1, 1) translate(-756.645352, -572.962810) translate(700.645352, 497.962810)"><path d="M74.7067138,12.5231405 C74.4240692,8.24380165 74.1091931,3.83057851 72.1753088,1.42108547e-13 C58.6579535,16.3487603 53.5951436,39.3347107 58.9901849,59.8487603 L62.9769617,63.5528926 C69.5521684,57.3570248 73.1100196,48.4933884 74.5009287,39.5677686 C75.8918378,30.6396694 75.3017551,21.5380165 74.7067138,12.5231405" id="Fill-37" fill="#D6D6E4"></path><path d="M111.043904,35.7446281 C110.756301,35.414876 110.305061,35.2958678 109.878615,35.1991736 C101.024896,33.2206612 91.3207634,35.4694215 84.242251,41.1446281 C77.1612593,46.8198347 72.8546477,55.8024793 72.8596064,64.8743802 L75.5447303,68.1173554 C81.2100196,69.6644628 87.1331601,66.7760331 91.8339865,63.2553719 C100.427375,56.8239669 107.166218,47.9380165 111.038945,37.9264463 C111.316631,37.2099174 111.552168,36.3198347 111.043904,35.7446281" id="Fill-38" fill="#D6D6E4"></path><path d="M23.0893584,35.253719 C17.064565,30.3595041 10.0554741,25.5743802 2.30754025,26.0479339 C1.4868791,26.1 0.544730337,26.2909091 0.162912155,27.0173554 C-0.68502173,28.6239669 2.02737496,29.831405 2.5529948,31.5694215 C2.86043282,32.5809917 2.36208571,33.6371901 2.15382125,34.6760331 C1.77200306,36.5727273 2.3744824,38.5239669 3.09101133,40.3214876 C10.1769617,58.0983471 30.2372923,69.7066116 49.1819204,66.9892562 L51.5397717,63.2876033 C42.9786146,53.0652893 33.4381188,43.6636364 23.0893584,35.253719" id="Fill-39" fill="#D6D6E4"></path><path d="M45.2943171,64.4132231 C58.8116725,77.246281 60.5447303,96.2876033 58.2141518,113.858678 C57.7083667,117.681818 63.7257221,117.644628 64.2290279,113.858678 C66.7678708,94.7206612 64.1546477,74.0305785 49.5463832,60.1586777 C46.7397717,57.4958678 42.4802675,61.7404959 45.2943171,64.4132231" id="Fill-40" fill="#D6D6E4"></path><path d="M58.4943171,58.3140496 C61.3529948,75.2057851 57.7083667,92.2735537 59.5133254,109.244628 C59.9199369,113.055372 65.9372923,113.095041 65.5282014,109.244628 C63.6637386,91.7157025 67.2488626,74.1842975 64.2934907,56.714876 C63.6488626,52.9066116 57.8521684,54.5231405 58.4943171,58.3140496" id="Fill-41" fill="#D6D6E4"></path><path d="M76.1199369,57.1190083 C71.1587799,64.5619835 66.1480361,72.6867769 63.827375,81.4140496 C61.3133254,90.8826446 62.0298543,101.536364 61.59597,111.26281 C61.4248956,115.133058 67.4372923,115.12314 67.610846,111.26281 C68.0199369,102.094215 67.3579535,91.9214876 69.6290279,83.0132231 C71.7017551,74.8760331 76.6877055,67.0933884 81.3116725,60.153719 C83.4637386,56.9231405 78.257127,53.9082645 76.1199369,57.1190083" id="Fill-42" fill="#D6D6E4"></path><path d="M82.89597,149.139669 L49.3257221,149.139669 C47.9472097,149.139669 46.7397717,148.212397 46.3877055,146.878512 L34.9579535,103.738017 C34.4472097,101.809091 35.9025816,99.9198347 37.8984493,99.9198347 L94.3232427,99.9198347 C96.3191105,99.9198347 97.7744824,101.809091 97.2637386,103.738017 L85.8339865,146.878512 C85.4819204,148.212397 84.2744824,149.139669 82.89597,149.139669 L65.5481393,112.459174" id="Fill-43" fill="#AFB0CD"></path><path d="M70.6480361,6.49834711 C66.1753088,23.3504132 66.1405981,40.9190083 62.0695237,57.8479339 C61.9381188,58.3909091 62.7761353,58.6239669 62.9075403,58.0785124 C66.9786146,41.1495868 67.0158047,23.5760331 71.4860527,6.73140496 C71.6298543,6.18842975 70.7918378,5.95785124 70.6480361,6.49834711" id="Fill-44" fill="#BEBFD5"></path><path d="M76.1744824,62.9107438 C83.2653915,51.8107438 93.5372923,43.6785124 105.971177,39.3322314 C106.494317,39.1487603 106.268697,38.3107438 105.740598,38.4942149 C93.0835733,42.9173554 82.6405981,51.1735537 75.4257221,62.4719008 C75.1232427,62.9454545 75.8744824,63.3818182 76.1744824,62.9107438" id="Fill-45" fill="#BEBFD5"></path><path d="M4.31580472,31.4280992 C7.02324273,38.2338843 11.7835733,42.9743802 17.7315072,47.1396694 C26.3050609,53.1446281 37.3331601,56.1049587 45.1901849,62.8438017 C45.6860527,63.2677686 46.4100196,62.5487603 45.9116725,62.122314 C40.4447303,57.4338843 33.4802675,55.5 27.2918378,51.9694215 C18.403408,46.8966942 9.23233364,41.0429752 5.2976229,31.1578512 C5.05960637,30.5553719 4.07282951,30.8181818 4.31580472,31.4280992" id="Fill-46" fill="#BEBFD5"></path></g><g id="Group-2" transform="translate(247.000000, 226.805785)"><mask id="mask-3" fill="white"><use xlink:href="#path-2"></use></mask><use id="Fill-47" fill="#FAF9FE" xlink:href="#path-2"></use><g id="Group-6" filter="url(#filter-4)" mask="url(#mask-3)"><g transform="translate(131.000000, 151.194215)"><rect id="Rectangle-Copy-8" fill="#FFFFFF" x="0" y="0" width="307" height="80" rx="2"></rect><rect id="Rectangle" fill="#E2E0EC" x="90" y="20" width="71" height="6" rx="2"></rect><rect id="Rectangle" fill="#E2E0EC" x="10" y="10" width="60" height="60" rx="2"></rect><rect id="Rectangle" fill="#F4F4F7" x="90" y="36" width="180" height="4" rx="2"></rect><rect id="Rectangle" fill="#F4F4F7" x="90" y="46" width="160" height="4" rx="2"></rect><rect id="Rectangle" fill="#F4F4F7" x="90" y="56" width="71" height="4" rx="2"></rect></g></g><g id="Group-6" filter="url(#filter-5)" mask="url(#mask-3)"><g transform="translate(131.000000, 241.194215)"><rect id="Rectangle-Copy-8" fill="#FFFFFF" x="0" y="0" width="307" height="80" rx="2"></rect><rect id="Rectangle" fill="#E2E0EC" x="90" y="20" width="71" height="6" rx="2"></rect><rect id="Rectangle" fill="#CBC9D8" x="10" y="10" width="60" height="60" rx="2"></rect><rect id="Rectangle" fill="#F4F4F7" x="90" y="36" width="180" height="4" rx="2"></rect><rect id="Rectangle" fill="#F4F4F7" x="90" y="46" width="160" height="4" rx="2"></rect><rect id="Rectangle" fill="#F4F4F7" x="90" y="56" width="71" height="4" rx="2"></rect></g></g><g id="Group-6" filter="url(#filter-6)" mask="url(#mask-3)"><g transform="translate(131.000000, 331.194215)"><rect id="Rectangle-Copy-8" fill="#FFFFFF" x="0" y="0" width="307" height="80" rx="2"></rect><rect id="Rectangle" fill="#E2E0EC" x="90" y="20" width="71" height="6" rx="2"></rect><rect id="Rectangle" fill="#D6D3E2" x="10" y="10" width="60" height="60" rx="2"></rect><rect id="Rectangle" fill="#F4F4F7" x="90" y="36" width="180" height="4" rx="2"></rect><rect id="Rectangle" fill="#F4F4F7" x="90" y="46" width="160" height="4" rx="2"></rect><rect id="Rectangle" fill="#F4F4F7" x="90" y="56" width="71" height="4" rx="2"></rect></g></g><g id="Rectangle-Copy-8" opacity="0.3" mask="url(#mask-3)"><use fill="black" fill-opacity="1" filter="url(#filter-8)" xlink:href="#path-7"></use><use fill="#FFFFFF" fill-rule="evenodd" xlink:href="#path-7"></use></g><g id="Rectangle-Copy-17" opacity="0.3" mask="url(#mask-3)"><use fill="black" fill-opacity="1" filter="url(#filter-10)" xlink:href="#path-9"></use><use fill="#FFFFFF" fill-rule="evenodd" xlink:href="#path-9"></use></g></g><path d="M695.257851,281.761157 L247.62562,281.761157 L247.62562,240.31405 C247.62562,231.747934 254.570248,224.805785 263.136364,224.805785 L420.078512,224.805785 L413.089256,231.430579 L424.719835,246.502479 L443.002479,237.750413 L449.054545,266.535537 L447.767769,281.753719 L510.261983,281.753719 L509.78595,278.168595 L509.661983,277.226446 L508.330579,267.180165 C508.330579,267.180165 509.421488,238.784298 511.02562,235.189256 C511.072727,235.090083 511.194215,235.042975 511.382645,235.042975 C513.757851,235.042975 526.62562,242.575207 526.62562,242.575207 L541.261157,227.619835 L537.703306,224.805785 L679.747107,224.805785 C688.313223,224.805785 695.257851,231.747934 695.257851,240.31405 L695.257851,281.761157" id="Fill-48" fill="url(#linearGradient-11)"></path><path d="M286.429752,249.280992 C286.429752,251.980992 284.242975,254.167769 281.545455,254.167769 C278.845455,254.167769 276.661157,251.980992 276.661157,249.280992 C276.661157,246.58595 278.845455,244.399174 281.545455,244.399174 C284.242975,244.399174 286.429752,246.58595 286.429752,249.280992" id="Fill-51" fill="#FFFFFE"></path><path d="M308.342149,249.280992 C308.342149,251.980992 306.155372,254.167769 303.457851,254.167769 C300.760331,254.167769 298.573554,251.980992 298.573554,249.280992 C298.573554,246.58595 300.760331,244.399174 303.457851,244.399174 C306.155372,244.399174 308.342149,246.58595 308.342149,249.280992" id="Fill-52" fill="#FFFFFE"></path><path d="M330.257025,249.280992 C330.257025,251.980992 328.067769,254.167769 325.372727,254.167769 C322.672727,254.167769 320.48843,251.980992 320.48843,249.280992 C320.48843,246.58595 322.672727,244.399174 325.372727,244.399174 C328.067769,244.399174 330.257025,246.58595 330.257025,249.280992" id="Fill-53" fill="#FFFFFE"></path><g id="Group-6" transform="translate(460.000000, 338.000000)"><rect id="Rectangle-Copy-8" fill="#FFFFFF" x="0" y="0" width="307" height="80" rx="2"></rect><rect id="Rectangle" fill="#E2E0EC" x="90" y="20" width="71" height="6" rx="2"></rect><rect id="Rectangle" fill="#E2E0EC" x="10" y="10" width="60" height="60" rx="2"></rect><rect id="Rectangle" fill="#F4F4F7" x="90" y="36" width="180" height="4" rx="2"></rect><rect id="Rectangle" fill="#F4F4F7" x="90" y="46" width="160" height="4" rx="2"></rect><rect id="Rectangle" fill="#F4F4F7" x="90" y="56" width="71" height="4" rx="2"></rect></g><g id="Rectangle-Copy-18" transform="translate(199.000000, 296.000000)"><rect id="Rectangle-Copy-17" fill="#FFFFFF" x="0" y="0" width="130" height="250" rx="2"></rect><g id="Group-5" transform="translate(100.000000, 20.000000)" fill="#F4F4F7"><rect id="Rectangle" x="0" y="0" width="10" height="10" rx="2"></rect><rect id="Rectangle" x="0" y="20" width="10" height="10" rx="2"></rect><rect id="Rectangle" x="0" y="40" width="10" height="10" rx="2"></rect><rect id="Rectangle" x="0" y="60" width="10" height="10" rx="2"></rect><rect id="Rectangle" x="0" y="80" width="10" height="10" rx="2"></rect><rect id="Rectangle" x="0" y="100" width="10" height="10" rx="2"></rect><rect id="Rectangle" x="0" y="120" width="10" height="10" rx="2"></rect><rect id="Rectangle" x="0" y="140" width="10" height="10" rx="2"></rect><rect id="Rectangle" x="0" y="160" width="10" height="10" rx="2"></rect><rect id="Rectangle" x="0" y="180" width="10" height="10" rx="2"></rect><rect id="Rectangle" x="0" y="200" width="10" height="10" rx="2"></rect></g><g id="Group-5" transform="translate(20.000000, 22.000000)"><rect id="Rectangle" fill="#E2E0EC" x="0" y="0" width="71" height="6" rx="2"></rect><rect id="Rectangle" fill="#F4F4F7" x="0" y="20" width="71" height="6" rx="2"></rect><rect id="Rectangle" fill="#E2E0EC" x="0" y="40" width="61" height="6" rx="2"></rect><rect id="Rectangle" fill="#E2E0EC" x="0" y="60" width="71" height="6" rx="2"></rect><rect id="Rectangle" fill="#F4F4F7" x="0" y="80" width="41" height="6" rx="2"></rect><rect id="Rectangle" fill="#F4F4F7" x="0" y="100" width="66" height="6" rx="2"></rect><rect id="Rectangle" fill="#F4F4F7" x="0" y="120" width="51" height="6" rx="2"></rect><rect id="Rectangle" fill="#E2E0EC" x="0" y="140" width="71" height="6" rx="2"></rect><rect id="Rectangle" fill="#F4F4F7" x="0" y="160" width="58" height="6" rx="2"></rect><rect id="Rectangle" fill="#F4F4F7" x="0" y="180" width="61" height="6" rx="2"></rect><rect id="Rectangle" fill="#F4F4F7" x="0" y="200" width="41" height="6" rx="2"></rect></g><path d="M106.676777,24.9016504 L106.712311,24.9016504 L106.712311,26.9016504 L103.212311,26.9016504 L103.212311,24.9016504 L104.676777,24.9016504 L104.676777,22.0229708 L106.676777,22.0229708 L106.676777,24.9016504 Z" id="Combined-Shape" fill="#AFB0CD" transform="translate(104.962311, 24.462311) rotate(-315.000000) translate(-104.962311, -24.462311) "></path><path d="M106.676777,64.9016504 L106.712311,64.9016504 L106.712311,66.9016504 L103.212311,66.9016504 L103.212311,64.9016504 L104.676777,64.9016504 L104.676777,62.0229708 L106.676777,62.0229708 L106.676777,64.9016504 Z" id="Combined-Shape" fill="#AFB0CD" transform="translate(104.962311, 64.462311) rotate(-315.000000) translate(-104.962311, -64.462311) "></path><path d="M106.676777,84.9016504 L106.712311,84.9016504 L106.712311,86.9016504 L103.212311,86.9016504 L103.212311,84.9016504 L104.676777,84.9016504 L104.676777,82.0229708 L106.676777,82.0229708 L106.676777,84.9016504 Z" id="Combined-Shape" fill="#AFB0CD" transform="translate(104.962311, 84.462311) rotate(-315.000000) translate(-104.962311, -84.462311) "></path><path d="M106.676777,164.90165 L106.712311,164.90165 L106.712311,166.90165 L103.212311,166.90165 L103.212311,164.90165 L104.676777,164.90165 L104.676777,162.022971 L106.676777,162.022971 L106.676777,164.90165 Z" id="Combined-Shape" fill="#AFB0CD" transform="translate(104.962311, 164.462311) rotate(-315.000000) translate(-104.962311, -164.462311) "></path></g><path d="M602.357025,394.759504 C602.357025,394.759504 607.419835,390.130579 607.419835,383.079339 L622.791736,383.079339 C622.791736,383.079339 623.091736,392.780992 626.768595,394.759504 L602.357025,394.759504" id="Fill-187" fill="#8D5440"></path><path d="M577.81405,412.709917 L546.073554,421.910744 C544.878512,422.257851 543.616529,422.309917 542.396694,422.061983 L508.831405,415.25124 L506.238017,408.760331 L505.833884,408.896694 C504.420661,409.372727 503.471074,410.696694 503.471074,412.186777 L503.471074,414.095868 L501.363636,415.065289 L494.664463,416.634711 L492.966116,417.740496 L486.718182,417.740496 L488.966942,419.800826 C489.301653,420.108264 489.720661,420.306612 490.169421,420.373554 L505.194215,422.627273 L512.086777,423.861983 L539.198347,434.984298 C540.990909,435.720661 542.969421,435.864463 544.846281,435.395868 L579.435537,426.782645 L577.81405,412.709917" id="Fill-188" fill="#8D5440"></path><path d="M649.17438,412.709917 L680.912397,421.910744 C682.109917,422.257851 683.371901,422.309917 684.591736,422.061983 L718.154545,415.25124 L720.750413,408.760331 L721.154545,408.896694 C722.565289,409.372727 723.517355,410.696694 723.517355,412.186777 L723.517355,414.095868 L725.622314,415.065289 L732.323967,416.634711 L734.019835,417.740496 L740.270248,417.740496 L738.021488,419.800826 C737.686777,420.108264 737.267769,420.306612 736.819008,420.373554 L721.794215,422.627273 L714.901653,423.861983 L687.787603,434.984298 C685.997521,435.720661 684.019008,435.864463 682.139669,435.395868 L647.550413,426.782645 L649.17438,412.709917" id="Fill-189" fill="#8D5440"></path><path d="M615.440496,361.17686 C614.929752,359.322314 613.757025,357.552066 611.986777,356.795868 L614.344628,354.859504 C613.313223,354.901653 612.27438,354.990909 611.287603,355.293388 C610.295868,355.598347 609.390909,356.109091 608.466116,356.567769 C607.075207,357.254545 606.331405,357.363636 605.634711,358.836364 C604.900826,360.383471 604.164463,361.933058 603.430579,363.482645 C603.108264,364.164463 602.783471,364.84876 602.565289,365.572727 C602.247934,366.633884 602.168595,367.747107 602.089256,368.852893 C602.024793,369.772727 601.960331,370.690083 601.895868,371.609917 C601.838843,372.430579 601.781818,373.256198 601.868595,374.071901 C601.977686,375.105785 602.312397,376.1 602.647107,377.084298 C603.244628,378.839669 603.834711,381.358678 605.394215,382.494215 C607.047934,383.699174 608.842975,384.750413 610.952893,384.760331 C611.41405,384.76281 611.897521,384.710744 612.27686,384.452893 C612.653719,384.195041 612.87686,383.771074 613.070248,383.357025 C615.450413,378.286777 615.663636,372.507438 615.83719,366.91157 C615.896694,364.987603 615.95124,363.031405 615.440496,361.17686" id="Fill-190" fill="#8D5440"></path><polygon id="Fill-191" fill="#8D5440" points="639.257025 643.910744 649.928099 643.910744 649.928099 634.980165 639.257025 634.980165"></polygon><path d="M647.758678,641.128926 L639.078512,641.128926 L637.449587,646.013223 L637.449587,648.363636 C637.449587,649.660331 638.503306,650.71405 639.8,650.71405 L648.842149,650.71405 L658.427273,647.096694 L658.427273,645.442975 C658.427273,642.733058 657.128099,640.189256 654.931405,638.602479 L649.928099,634.980165 L649.928099,640.766942 L647.758678,641.128926" id="Fill-192" fill="#E0593B"></path><path d="M639.8,647.458678 L648.842149,647.458678 L658.243802,643.910744 C658.338017,644.41405 658.427273,644.922314 658.427273,645.442975 L658.427273,647.096694 L648.842149,650.71405 L639.8,650.71405 C638.503306,650.71405 637.449587,649.660331 637.449587,648.363636 L637.449587,646.013223 L637.563636,645.671074 C637.821488,646.690083 638.701653,647.458678 639.8,647.458678" id="Fill-193" fill="#474959"></path><polygon id="Fill-194" fill="#8D5440" points="583.729752 643.910744 594.398347 643.910744 594.398347 634.980165 583.729752 634.980165"></polygon><path d="M588.35124,493.283471 C588.35124,493.283471 586.075207,508.809091 584.3,523.809091 C583.915702,527.061983 583.729752,530.332231 583.729752,533.607438 L583.729752,637.333058 L594.398347,637.333058 C594.398347,637.333058 602.642149,601.199174 604.308264,577.109917 C604.749587,570.720661 605.852893,564.400826 607.243802,558.147934 L618.450413,507.693388 L618.450413,495.34876 L588.35124,493.283471" id="Fill-195" fill="#474959"></path><path d="M645.38843,497.247934 C645.38843,497.247934 647.783471,510.643802 649.571074,525.772727 C649.796694,527.681818 649.915702,529.605785 649.915702,531.527273 L649.915702,637.333058 L639.257025,637.521488 C639.257025,637.521488 630.130579,602.82314 629.004959,576.346281 C628.826446,572.136364 628.042975,567.983471 627.16281,563.86281 L615.195041,523.117355 L615.195041,495.34876 L645.38843,497.247934" id="Fill-196" fill="#474959"></path><path d="M585.899174,641.128926 L594.579339,641.128926 L596.208264,646.013223 L596.208264,648.363636 C596.208264,649.660331 595.154545,650.71405 593.857851,650.71405 L584.815702,650.71405 L575.230579,647.096694 L575.230579,645.442975 C575.230579,642.733058 576.529752,640.189256 578.723967,638.602479 L583.729752,634.980165 L583.729752,640.766942 L585.899174,641.128926" id="Fill-197" fill="#E0593B"></path><path d="M593.857851,647.458678 L584.815702,647.458678 L575.41405,643.910744 C575.319835,644.41405 575.230579,644.922314 575.230579,645.442975 L575.230579,647.096694 L584.815702,650.71405 L593.857851,650.71405 C595.154545,650.71405 596.208264,649.660331 596.208264,648.363636 L596.208264,646.013223 L596.094215,645.671074 C595.836364,646.690083 594.956198,647.458678 593.857851,647.458678" id="Fill-198" fill="#474959"></path><path d="M638.716529,397.454545 C643.082645,398.810744 665.639669,415.179339 665.639669,415.179339 L658.942975,431.71157 L644.490909,426.472727 L647.550413,506.193388 C638.265289,498.34876 607.781818,517.957851 583.729752,503.128926 C583.729752,503.128926 594.760331,452.15124 587.347107,427.920661 L570.485124,431.423967 L562.635537,414.671074 L573.53719,407.845455 C575.401653,406.677686 577.241322,405.452893 578.919835,404.029752 C582.812397,400.732231 587.347107,398.26281 592.246281,396.787603 L602.357025,393.740496 L626.768595,393.740496 L638.716529,397.454545 Z" id="Fill-199" fill="url(#linearGradient-12)"></path><path d="M629.590083,370.114876 C629.33719,368.438843 629.783471,366.745455 629.924793,365.054545 C630.133058,362.607438 629.723967,360.296694 628.600826,358.095041 C627.713223,356.359504 626.67686,354.658678 625.206612,353.37686 C622.360331,350.897521 618.319008,350.349587 614.542975,350.394215 C613.395041,350.409091 612.217355,350.471074 611.153719,350.909917 C610.318182,351.257025 609.57686,351.822314 608.71405,352.092562 C608.141322,352.273554 607.533884,352.315702 606.94876,352.454545 C606.152893,352.645455 605.409091,353.014876 604.695041,353.41405 C603.94876,353.833058 603.202479,354.309091 602.709091,355.008264 C601.380165,356.890083 601.722314,360.683471 602.580165,362.694215 C602.904959,363.460331 603.373554,364.159504 603.68595,364.928099 C604.831405,367.73719 603.782645,371 604.54876,373.935537 C605.081818,375.966116 606.440496,377.679339 607.201653,379.635537 C607.682645,380.872727 607.930579,382.223967 608.681818,383.319835 C610.194215,385.533884 612.857025,385.796694 615.254545,386.314876 C618.222314,386.957025 620.912397,387.919008 624.01157,387.976033 C629.389256,388.072727 628.223967,383.161157 629.9,379.680165 C630.281818,378.881818 630.83719,378.16281 631.087603,377.314876 C631.799174,374.927273 629.959504,372.57686 629.590083,370.114876" id="Fill-200" fill="#232532"></path><path d="M414.264463,232.920661 L400.546281,243.700826 L396.68595,290.498347 L396.68595,300.601653 C396.68595,301.385124 397.028099,302.128926 397.62314,302.63719 C398.109091,303.053719 398.726446,303.281818 399.366116,303.281818 L405.475207,303.281818 L405.475207,309.400826 C405.475207,310.295868 406.201653,311.022314 407.096694,311.022314 C408.004132,311.022314 408.733058,310.276033 408.715702,309.371074 L408.519835,299.183471 L409.647934,299.064463 C410.684298,298.952893 411.410744,297.990909 411.229752,296.964463 L410.885124,294.983471 C410.855372,294.019008 410.431405,293.109091 409.712397,292.464463 L407.783471,290.738843 L405.475207,287.121488 L410.67686,254.555372 L424.02562,245.309917 L414.264463,232.920661" id="Fill-201" fill="#F6C9B6"></path><path d="M540.182645,228.720661 L589.424793,271.972727 L602.208264,278.195868 L610.047934,278.195868 C611.047107,278.195868 611.857851,279.006612 611.857851,280.005785 C611.857851,281.004959 611.047107,281.813223 610.047934,281.813223 L587.691736,281.813223 C585.770248,281.813223 583.987603,280.81405 582.98595,279.175207 L581.947107,277.471901 L542.867769,249.973554 L527.895041,241.278512 L540.182645,228.720661" id="Fill-202" fill="#F6C9B6"></path><path d="M486.718182,195.455372 L507.87438,202.995041 C510.599174,203.966942 513.150413,205.377686 515.419008,207.175207 L541.261157,227.619835 L526.62562,242.575207 C526.62562,242.575207 511.645455,233.805785 511.02562,235.189256 C509.421488,238.784298 508.330579,267.180165 508.330579,267.180165 L510.261983,281.753719 L447.767769,281.753719 L449.054545,266.535537 L443.002479,237.750413 L424.719835,246.502479 L413.089256,231.430579 L439.144628,206.728926 C440.952066,205.015702 443.03719,203.619835 445.310744,202.598347 L461.213223,195.455372 L486.718182,195.455372" id="Fill-203" fill="url(#linearGradient-13)"></path><g id="Group-206" transform="translate(446.818182, 272.140496)"><mask id="mask-15" fill="white"><use xlink:href="#path-14"></use></mask><g id="Clip-205"></g><path d="M0.949586777,5.61322314 L1.33140496,1.08595041 L0.949586777,5.61322314 M62.9677686,2.02809917 L62.8438017,1.08595041 L62.9677686,2.02809917" id="Fill-204" fill="url(#linearGradient-16)" mask="url(#mask-15)"></path></g><polyline id="Fill-207" fill="#ED0100" opacity="0.150832403" points="510.261983 277.753719 447.767769 277.753719 448.149587 273.226446 509.661983 273.226446 509.78595 274.168595 510.261983 277.753719"></polyline><path d="M474.138017,213.769421 L474.138017,213.769421 C479.867769,213.769421 484.51157,209.12562 484.51157,203.395868 L484.51157,193.867769 L463.766942,193.867769 L463.766942,203.395868 C463.766942,209.12562 468.410744,213.769421 474.138017,213.769421" id="Fill-208" fill="#F6C9B6"></path><path d="M457.879938,171.404146 C458.006384,170.268609 458.041095,167.972741 458.266715,166.85208 C458.727872,164.585964 460.364235,162.069436 461.975805,160.413237 C463.317128,159.037204 462.793987,159.168609 464.373326,158.072741 C467.142748,156.146295 471.903078,155.380179 475.265062,155.583485 C476.693161,155.672741 478.106384,156.037204 479.47002,156.446295 C479.784896,156.542989 483.275805,158.702493 482.636136,159.024807 C484.151012,158.261171 486.025392,159.002493 487.287376,160.133072 C489.325392,161.960345 490.354318,164.630593 491.308863,167.196708 C491.767541,168.419022 492.223739,169.641336 492.679938,170.86613 C493.091508,171.969436 493.503078,173.199188 493.069194,174.295055 C492.878285,174.776047 492.538615,175.185138 492.327872,175.656212 C491.777458,176.883485 492.169194,178.299188 492.263409,179.64051 C492.399772,181.576874 491.817128,183.533072 490.728698,185.132245 C489.699772,186.644642 488.048533,187.133072 486.952665,188.3777 L487.515475,188.199188 C482.903905,191.075221 477.067541,190.762824 471.647706,190.351254 C469.081591,190.157865 466.515475,189.961998 463.949359,189.768609 C462.570847,189.664477 461.051012,189.493402 460.123739,188.466956 C459.179111,187.420675 459.181591,185.856212 458.725392,184.524807 C458.120434,182.75456 456.6725,181.343816 456.189029,179.538857 C455.452665,176.796708 457.57002,174.225634 457.879938,171.404146" id="Fill-209" fill="#E0593B"></path><g id="Group-12" transform="translate(42.414050, 384.085879)"><path d="M77.5599065,15.4719917 C78.0466982,12.7383416 80.2394397,11.2909688 81.9405936,9.29307133 C83.3564771,7.63314157 90.7548235,3.39918337 98.0513739,4.24964975 C99.8579241,4.4602164 103.959198,5.64102036 103.283971,6.02983273 C104.883055,5.10864649 106.861628,6.00291495 108.193763,7.36674913 C110.345068,9.57101621 111.431189,12.7921772 112.438796,15.8877219 C112.92297,17.362218 113.404528,18.8367142 113.886085,20.3142012 C114.320534,21.6451359 114.754982,23.1286047 114.296979,24.4505667 C114.095458,25.0307944 113.736907,25.5242871 113.514449,26.0925513 C112.933439,27.5730292 113.34695,29.2808128 113.446402,30.8988704 C113.590346,33.2347356 112.975314,35.5945276 111.82638,37.5236351 C110.740259,39.3480624 108.997231,39.9372627 107.840446,41.4386767 L108.434541,41.2233344 C103.566624,44.6927372 97.4058297,44.3158882 91.6847182,43.8194048 C88.9759578,43.5861173 86.2671973,43.349839 83.5584369,43.1165516 C82.103296,42.9909353 80.498977,42.7845657 79.5201592,41.5463478 C78.5230213,40.284203 78.5256385,38.3969676 78.044081,36.7908734 C77.405494,34.6553962 75.8770727,32.9535943 75.3667265,30.776245 C74.58943,27.4683489 76.8244846,24.3668225 77.1516295,20.9632188 C77.2851047,19.5934029 77.3217449,16.8238624 77.5599065,15.4719917 Z" id="Fill-209-Copy" fill="#F8E8E3" transform="translate(94.847958, 24.137991) rotate(13.000000) translate(-94.847958, -24.137991) "></path><polygon id="Fill-213" fill="#EABDAE" points="79.5363636 251.314947 93.0338843 251.314947 93.0338843 236.738914 79.5363636 236.738914"></polygon><polyline id="Fill-214" fill="#EABDAE" points="3.72561983 246.066187 16.7099174 249.750485 20.6892562 235.729824 7.70495868 232.045526 3.72561983 246.066187"></polyline><polyline id="Fill-215" fill="#41444C" points="69.0041322 122.300071 93.7107438 171.381063 94.6826446 243.524865 78.1057851 243.524865 76.5239669 182.912468 51.1950413 146.728997 69.0041322 122.300071"></polyline><polyline id="Fill-219" fill="#1B1B32" points="63.5545455 164.384369 51.1950413 146.728997 68.0371901 123.624038 69.961157 124.201724 70.9752066 126.212468 64.7644628 137.909989 63.5545455 164.384369"></polyline><path d="M69.0041322,122.300071 L69.653719,123.589328 L62.0495868,137.909989 L42.9214876,183.157923 C41.6619835,186.138088 39.8867769,188.872799 37.6752066,191.235609 L19.2586777,242.476105 L4.62809917,240.899245 L13.977686,201.078584 C15.6090909,193.762055 18.2644628,186.663708 22.2958678,180.343873 C23.3024793,178.769493 24.0561983,177.110815 24.0561983,175.677757 L30.8396694,133.747179 L29.6917355,129.190154 C28.6752066,125.163708 29.0049587,120.914121 30.6239669,117.090981 L32.4140496,112.873625 L69.0041322,122.300071" id="Fill-220" fill="#41444C"></path><path d="M94.6826446,56.5703194 L112.826446,80.9223855 C113.359504,81.7108153 114.207438,82.2339558 115.152066,82.360402 L144.204959,86.2256913 C145.580992,86.4314764 146.932231,85.7174268 147.534711,84.4653607 L152.624793,73.9083359 L152.624793,67.0108153 C152.624793,65.0570963 154.17686,63.4554434 156.130579,63.3909806 L156.130579,83.8579227 L151.28595,90.9289971 C150.775207,91.6777574 149.952066,92.1562698 149.047107,92.2281706 L113.277686,95.0645343 C111.566942,95.1984186 109.890909,94.5240384 108.752893,93.2372615 L78.1057851,58.6430467 L94.6826446,56.5703194" id="Fill-221" fill="#DDAF9F"></path><polyline id="Fill-222" fill="#EABDAE" points="85.4471074 45.8422202 96.6661157 52.8537905 103.918182 41.2504847 92.6991736 34.2389144 85.4471074 45.8422202"></polyline><path d="M110.109091,16.0108153 L110.109091,21.2124682 C110.109091,21.2124682 109.980165,27.4281706 112.769421,29.984369 L110.78595,30.4851954 L110.805785,32.4637078 C110.857851,37.4347822 106.843802,41.4909806 101.872727,41.4909806 L95.9867769,41.4909806 C93.0933884,41.4909806 90.5198347,39.6513111 89.585124,36.9141211 L84.6661157,22.4942863 L86.6247934,14.1265177 C86.6247934,14.1265177 103.51157,8.39924502 110.109091,16.0108153" id="Fill-223" fill="#EABDAE"></path><path d="M100.025351,10.1455663 C98.7433093,9.83343031 77.7536991,16.605249 79.0552151,20.3118634 C80.5157692,24.4704247 83.5342477,28.1250165 87.4874808,30.0596091 C90.5384161,31.5552605 94.0210262,32.0007045 97.4062661,31.7893625 C99.7950834,31.6397973 104.923284,36.5465298 106.997271,35.3500087 C110.041715,33.5909925 106.583676,29.0146436 107.907912,25.7534732 C108.670646,23.8741547 104.423332,19.1715377 104.786848,17.1784196 C102.925934,12.8084895 101.338768,10.4642051 100.025351,10.1455663 Z" id="Fill-212" fill="#F8E8E3" transform="translate(93.644835, 22.836663) rotate(-70.000000) translate(-93.644835, -22.836663) "></path><path d="M95.1809917,55.023212 L96.6661157,52.8537905 L85.6305785,45.5463525 C80.9134986,46.6849782 77.4203857,47.7524713 75.1512397,48.7488318 C71.7475207,50.2433725 68.8586777,53.7025508 67.9487603,55.3885012 C61.6497534,69.0722478 55.0585688,80.8940109 48.1752066,90.8537905 C41.2918444,100.81357 35.513332,108.017978 30.8396694,112.467014 L72.938843,125.094286 C73.6815427,119.640843 74.0528926,115.753515 74.0528926,113.432303 C74.0528926,109.950485 80.914876,89.23065 86.461157,88.5835425 C90.1586777,88.1521376 93.7818182,84.2405673 97.3305785,76.8488318 L99.1652893,64.7496582 L95.1809917,55.023212 Z" id="Fill-224" fill="url(#linearGradient-17)"></path><path d="M119.208264,260.143873 L118.578512,258.633956 C117.410744,255.829824 115.295868,253.526518 112.603306,252.123212 L101.389256,248.012468 L93.807438,243.247179 L93.807438,247.308336 L85.122314,247.147179 L81.5694215,245.163708 L79.077686,245.195939 L79.077686,260.143873 L119.208264,260.143873" id="Fill-225" fill="#474959"></path><polygon id="Fill-226" fill="#141728" points="79.0859504 262.526518 119.38595 262.526518 119.38595 260.143873 79.0859504 260.143873"></polygon><path d="M36.8595041,260.917427 L36.353719,258.795113 C35.1066116,256.048005 35.1066116,256.048005 33.0090909,254.223212 L23.9,248.168667 L18.1628099,242.30503 L17.2975207,245.924865 L9.59421488,243.924038 L6.85454545,241.400071 L4.62809917,240.899245 L1.43719008,254.210815 L32.8231405,261.73065 L36.8595041,260.917427" id="Fill-227" fill="#474959"></path><polygon id="Fill-228" fill="#141728" points="0.92892562 256.333129 25.6826446 262.506683 29.0347107 260.823212 1.43719008 254.210815"></polygon><polygon id="Fill-229" fill="#141728" points="36.8595041 262.343047 25.6826446 262.506683 25.6826446 260.15627 36.8595041 260.15627"></polygon><path d="M112.826446,84.5397409 C113.359504,85.33065 114.207438,85.8537905 115.152066,85.9777574 L144.204959,89.8430467 C145.580992,90.0513111 146.932231,89.3372615 147.534711,88.0827161 L152.624793,77.5256913 L152.624793,70.63065 C152.624793,68.6744516 154.17686,67.0727987 156.130579,67.0108153 L156.130579,87.4777574 L151.28595,94.5488318 C150.775207,95.2975921 149.952066,95.7736252 149.047107,95.845526 L113.277686,98.6818896 C111.566942,98.8182533 109.890909,98.1413938 108.752893,96.8570963 L85.4471074,71.7885012 L99.1652893,64.7496582 L112.826446,84.5397409 Z" id="Fill-234" fill="#EABDAE"></path></g><path d="M473.999174,203.27686 L473.999174,203.27686 C481.060331,203.27686 486.782645,197.552066 486.782645,190.490909 L486.782645,172.639669 L461.213223,172.639669 L461.213223,190.490909 C461.213223,197.552066 466.938017,203.27686 473.999174,203.27686" id="Fill-210" fill="#F6C9B6"></path><path d="M458.052066,173.232231 C459.261983,170.591736 461.818182,168.757025 464.560331,167.807438 C467.304959,166.860331 470.250413,166.699174 473.153719,166.632231 C474.631405,166.597521 476.123967,166.587603 477.57686,166.86281 C479.339669,167.197521 480.993388,167.941322 482.627273,168.677686 C483.782645,169.198347 484.938017,169.721488 486.093388,170.242149 C487.17686,170.730579 488.307438,171.256198 489.026446,172.200826 C490.310744,173.889256 489.871901,176.296694 489.147934,178.290083 L488.699174,178.644628 C485.26281,178.18843 482.726446,175.339669 480.323967,172.840496 L479.852893,172.510744 C479.612397,172.458678 479.37438,172.585124 479.158678,172.704132 C475.506612,174.714876 471.254545,175.26281 467.109091,175.709091 C464,176.043802 460.454545,176.2 458.195868,174.038017 L457.957851,173.68595 L458.052066,173.232231" id="Fill-211" fill="#E0593B"></path><path d="M486.832231,192.414876 C487.303306,189.831405 487.330579,187.166116 486.894215,184.575207 C485.917355,185.943802 485.542975,187.642149 484.77438,189.134711 C484.003306,190.627273 482.552893,192.018182 480.884298,191.827273 C478.903306,191.601653 477.829752,189.380165 476.07686,188.428099 C475.013223,187.850413 473.728926,187.776033 472.543802,188.031405 C471.361157,188.289256 470.267769,188.854545 469.243802,189.499174 C467.934711,190.324793 466.486777,191.338843 464.981818,190.97438 C464.002479,190.736364 463.246281,189.935537 462.765289,189.047934 C462.284298,188.160331 462.031405,187.173554 461.681818,186.226446 L461.282645,185.780165 C459.904132,188.566942 460.387603,192.890909 461.381818,195.717355 C462.497521,198.88843 464.803306,201.675207 467.82314,203.150413 C470.153719,204.290909 472.81405,204.630579 475.4,204.469421 C477.224793,204.355372 479.066942,203.98595 480.65124,203.073554 C482.97686,201.732231 484.526446,199.344628 485.538017,196.857851 C486.120661,195.424793 486.554545,193.934711 486.832231,192.414876" id="Fill-212" fill="#E0593B"></path><g id="Group-218" transform="translate(134.421488, 507.677686)"><mask id="mask-19" fill="white"><use xlink:href="#path-18"></use></mask><g id="Clip-217"></g><polyline id="Fill-216" fill="url(#linearGradient-20)" mask="url(#mask-19)" points="2.9677686 2.62066116 1.95371901 0.609917355 2.9677686 2.62066116"></polyline></g><g id="Group-237" transform="translate(139.380165, 485.363636)"><mask id="mask-22" fill="white"><use xlink:href="#path-21"></use></mask><g id="Clip-236"></g><path d="M3.08677686,2.15454545 L3.08677686,2.15454545 C3.11404959,2.02809917 3.14876033,1.90165289 3.18347107,1.77520661 L3.20578512,1.81487603 L3.08677686,2.15454545" id="Fill-235" fill="url(#linearGradient-23)" mask="url(#mask-22)"></path></g><path d="M143.342149,485.400826 C143.503306,485.145455 143.679339,484.902479 143.875207,484.669421 L145.950413,482.190083 L143.875207,484.669421 C143.684298,484.897521 143.513223,485.138017 143.361983,485.390909 C143.354545,485.393388 143.349587,485.395868 143.342149,485.400826" id="Fill-238" fill="#F9F8F7"></path><g id="Group-241" transform="translate(139.380165, 482.884298)"><mask id="mask-25" fill="white"><use xlink:href="#path-24"></use></mask><g id="Clip-240"></g><path d="M3.27768595,4.09586777 L3.23553719,4.0785124 C3.41157025,3.52809917 3.65454545,3.00247934 3.96198347,2.51652893 C3.96942149,2.51157025 3.97438017,2.50909091 3.98181818,2.50661157 C3.68181818,3.00247934 3.45371901,3.54049587 3.27768595,4.09586777" id="Fill-239" fill="url(#linearGradient-26)" mask="url(#mask-25)"></path></g><path d="M112.516529,474.407438 L115.806612,469.63719 L112.519008,474.407438 C112.519008,474.407438 112.519008,474.407438 112.516529,474.407438 M116.927273,468.010744 L116.927273,468.010744 L117.120661,467.730579 L116.927273,468.010744 M119.679339,462.769421 L122.029752,458.078512 L119.679339,462.769421" id="Fill-243" fill="#F9F8F7"></path><g id="Group-4" transform="translate(312.725492, 471.744578)"><path d="M37.9844251,165.621538 L29.9488879,169.194265 L17.1059127,172.481868 C15.447235,172.853769 14.2695491,174.326496 14.2695491,176.024844 L51.754673,175.866166 L50.8348383,169.293439 L45.4794664,165.621538 L37.9844251,165.621538" id="Fill-247" fill="#FFD9C4"></path><path d="M34.2827722,172.090133 L29.9488879,169.194265 L17.3662433,171.321538 C15.7100449,171.693439 14.2695491,174.326496 14.2695491,176.024844 L51.754673,175.866166 L50.8348383,169.293439 L47.7753342,171.971125 L42.4298796,171.926496 C39.9629375,172.392612 36.4918631,173.295092 34.2827722,172.090133" id="Fill-248" fill="#474959"></path><polyline id="Fill-249" fill="#FFD9C4" points="49.2852515 169.293439 37.9844251 166.434761 37.9844251 150.849637 49.2852515 150.849637 49.2852515 169.293439"></polyline><path d="M129.065417,122.642199 C129.065417,122.642199 57.4571524,96.7554221 49.1166565,99.9612072 C49.1166565,99.9612072 38.4381441,99.9512899 36.1695491,116.954596 L36.5811193,153.656249 L50.6166565,153.656249 L54.3183094,125.63724 C54.8959953,123.847158 56.9637639,123.033935 58.6075656,123.948811 L101.884425,148.060381 L129.065417,122.642199" id="Fill-250" fill="#474959"></path><path d="M90.7670697,129.207488 L47.4753342,155.882695 C44.9042598,157.466992 43.3373177,160.271125 43.3373177,163.290959 L43.3373177,165.852116 C43.3373177,171.470298 47.8943424,176.024844 53.5125243,176.024844 L112.339797,173.119058 L112.339797,155.984348 C112.339797,155.984348 130.372028,148.96286 129.474508,133.950463 L90.7670697,129.207488" id="Fill-251" fill="#474959"></path><polyline id="Fill-252" fill="#FFD9C4" points="115.500954 154.459554 145.081946 176.024844 112.339797 173.119058 112.339797 155.984348 115.500954 154.459554"></polyline><path d="M115.500954,154.459554 L112.339797,155.984348 L112.339797,163.328149 C114.31583,162.373604 116.636491,162.465339 118.533185,163.573604 L133.089384,174.671125 C134.244756,175.548811 135.655499,176.024844 137.105913,176.024844 L145.081946,176.024844 L115.500954,154.459554" id="Fill-253" fill="#474959"></path><path d="M86.3315325,30.2198849 C86.3315325,30.2198849 93.3207887,43.6058353 87.9381441,51.5620337 L106.986904,49.7992238 L99.3728548,25.5736039 L86.3315325,30.2198849" id="Fill-254" fill="#FFD9C4"></path><path d="M101.366243,23.6124469 C101.113351,22.0702982 100.421615,20.642199 99.7373177,19.2364139 C97.6596317,14.9669924 95.4356648,10.5165791 91.5728548,7.75459567 C89.8745077,6.53971964 87.9108714,5.69426509 86.3662433,4.28847997 C85.9918631,4.51657914 85.6199623,4.74467832 85.2455821,4.97277749 L83.1778135,5.32980228 C81.1373177,5.69922377 79.2778135,7.10996757 78.5166565,9.03641386 C77.7554995,10.9653395 78.1968218,13.3479841 79.7017805,14.7736039 C80.6141772,15.6388932 81.8141772,16.1124469 82.9125243,16.7248436 C85.2604581,18.0314552 87.2166565,20.034761 88.4637639,22.4149263 C88.9125243,23.2702982 89.2745077,24.1777362 89.8373177,24.9612072 C91.5678962,27.3760833 94.7588053,28.1397196 97.6720284,28.7273229 C98.2199623,28.8388932 98.8001276,28.9479841 99.3331854,28.7744304 C99.739797,28.6430254 100.076987,28.3579015 100.354673,28.0355874 C101.373681,26.8504634 101.616656,25.1545957 101.366243,23.6124469" id="Fill-255" fill="#50220B"></path><path d="M100.729053,18.3860006 C99.1348383,15.5893064 97.5381441,12.7826948 95.6191358,10.1967444 C95.0488879,9.43062873 94.4315325,8.66451303 93.5984747,8.19095931 C92.7877309,7.73228162 91.8406234,7.58847997 90.9133507,7.4818684 C88.624921,7.22401716 86.3141772,7.14715766 84.0108714,7.25624857 L83.6563259,7.75211633 C83.0116978,9.39839733 82.5455821,11.0967444 82.193516,12.8248436 C81.8216152,14.657075 79.0993011,19.0008767 78.9108714,20.8752568 C78.8835986,21.1504634 81.3356648,21.4281494 81.308392,21.7058353 C81.2166565,22.6950915 81.1373177,23.6868271 81.0579788,24.6736039 C80.9067391,26.518232 80.7604581,25.9132734 81.1447557,27.7256701 C81.5290532,29.5355874 82.5282267,31.303356 84.1596317,32.1785626 C85.9993011,33.1653395 88.2530201,32.8529428 90.2612846,32.2851742 C93.0827722,31.4893064 95.7778135,30.234761 98.2075656,28.5909593 C100.25302,27.2050089 102.261285,25.2314552 102.286078,22.7620337 C102.303433,21.1950915 101.505086,19.749637 100.729053,18.3860006" id="Fill-256" fill="#FFD9C4"></path><path d="M133.453847,134.104182 C123.967896,146.649637 101.081119,129.056249 86.3315325,132.269472 C86.3315325,132.269472 89.2147458,123.446004 88.4221258,113.459805 C87.8094119,105.74024 83.6087776,96.522174 82.8993011,95.1835213 C81.2720303,92.1131582 77.2745077,92.5 75.3844251,83.9355874 C73.4943424,75.3711748 77.2745077,70.778725 81.1507761,66.3658405 C83.734955,63.4239174 85.997411,58.4893152 87.9381441,51.5620337 L108.268723,43.8463312 C109.972028,43.1992238 111.900954,43.7025296 113.071202,45.1008767 C115.580293,48.1008767 116.418309,52.1744304 115.213351,55.8934386 C111.24145,68.1562486 133.453847,134.104182 133.453847,134.104182 Z" id="Fill-257" fill="url(#linearGradient-27)"></path><path d="M115.783599,27.0686453 C115.597648,19.9901329 117.043103,12.1380667 112.845582,6.43806675 C109.379466,1.73476096 103.052194,0.115752698 97.2108714,0.006661789 C94.3571524,-0.0454043267 91.4464086,0.192612202 88.7984747,1.2587279 C87.1819458,1.91079402 85.6224416,2.99922377 84.3877309,4.22153782 C83.7034334,4.89839733 82.9521937,5.51823204 83.2819458,6.42567005 C83.5794664,7.23889319 84.9926896,7.96533947 85.7364912,8.25046344 C86.7926896,8.65459567 87.9406234,8.73641386 89.0265739,9.04881055 C91.6075656,9.79013286 91.7811193,11.6893064 92.1257474,14.0322816 C92.5298796,16.7793891 92.7678962,19.5488105 92.839797,22.3256701 C92.8695491,23.4091411 92.8769871,24.5198849 93.0753342,25.5785626 C93.1745077,26.1140998 93.3232681,26.6372403 93.5488879,27.1380667 C94.3745077,28.9777362 96.0877309,30.2273229 97.6447557,31.5066618 C98.9017805,32.5430254 100.491037,33.9314552 100.860458,35.6050089 C101.291863,37.5488105 100.538144,39.6537692 101.066243,41.6843477 C101.916656,44.957075 104.847235,47.1785626 106.986904,49.7992238 C110.170376,53.6992238 113.86679,56.6202768 114.320509,61.6359792 C114.774228,66.6516817 116.623102,50.4198849 117.438805,54.2554221 C120.974342,46.381042 116.021615,36.1826948 115.783599,27.0686453 Z" id="Fill-258" fill="#50220B"></path><path d="M22.4216152,67.642199 L55.7290532,93.4248436 C57.1348383,94.5132734 59.0116978,94.781042 60.6654168,94.1289758 L101.911698,77.8793891 C106.109218,76.2256701 107.847235,71.2223643 105.576161,67.3248436 C103.699301,64.1017031 99.7100449,62.7901329 96.2885573,64.2727775 L57.7645904,80.9512899 L26.7827722,62.3636866 L23.9984747,58.4512899 L17.6736813,54.1868271 L16.7488879,53.9512899 L16.7488879,56.8818684 L17.247235,57.0306287 L17.8869044,58.8083147 L10.9918631,57.5983973 L1.68194575,55.8926122 C1.31252427,56.2000502 1.39682179,57.4273229 1.68194575,57.8140998 L9.42987964,60.2289758 L9.35797881,61.0818684 L0.258805257,58.7364139 C-0.13293028,59.0413725 -0.0362360649,60.3281494 0.258805257,60.7273229 L9.39268955,63.4992238 L9.17698708,64.5579015 L0.900954018,62.5744304 C0.635664762,62.7826948 0.700127571,63.6529428 0.900954018,63.9256701 L8.82492096,66.4471577 L8.79021022,67.1240172 L1.64475567,65.8769097 C0.548887902,66.6529428 1.53070608,67.518232 1.68194575,67.6917858 L15.008392,69.5785626 C16.471202,69.7868271 17.9637639,69.5835213 19.3199623,68.9934386 L22.4216152,67.642199" id="Fill-259" fill="#FFD9C4"></path><path d="M96.2303652,61.5620337 L74.0737325,72.8537692 C71.9941141,77.1975709 83.3740318,80.6909593 82.5224528,87.58848 L103.552301,77.1678188 C108.269737,75.3926122 110.222138,69.0223643 107.669997,64.8397196 C105.56182,61.3785626 100.075452,59.9727775 96.2303652,61.5620337 Z" id="Fill-260" fill="url(#linearGradient-28)"></path></g><polyline id="Fill-264" fill="#FFFFFE" points="779.483471 637.835537 770.540496 642.997521 770.540496 632.671074 779.483471 637.835537 770.540496 642.997521 770.540496 632.671074 779.483471 637.835537"></polyline></g></g></g></svg> 